<svg xmlns="http://www.w3.org/2000/svg" version="1.1" xmlns:xlink="http://www.w3.org/1999/xlink" xmlns:svgjs="http://svgjs.com/svgjs" width="1440" height="560" preserveAspectRatio="none" viewBox="0 0 1440 560">
  <g mask="url(&quot;#SvgjsMask1063&quot;)" fill="none">
    <rect width="1440" height="560" x="0" y="0" fill="rgba(255, 255, 255, 1)"></rect>
    <path d="M 0,260 C 96,234.2 288,152.4 480,131 C 672,109.6 768,155.8 960,153 C 1152,150.2 1344,124.2 1440,117L1440 560L0 560z" fill="rgba(230, 230, 230, 1)" class="wave1"></path>
    <path d="M 0,406 C 72,413.8 216,448.2 360,445 C 504,441.8 576,392.4 720,390 C 864,387.6 936,430.6 1080,433 C 1224,435.4 1368,408.2 1440,402L1440 560L0 560z" fill="rgba(207, 207, 207, 1)" class="wave2"></path>
  </g>
  <defs>
    <mask id="SvgjsMask1063">
      <rect width="1440" height="560" fill="#ffffff"></rect>
    </mask>
    <style>
      @keyframes gelombang {
        0% {
          transform: translate(0, 0)
        }

        50% {
          transform: translate(8%, 0)
        }

        100% {
          transform: translate(0, 0)
        }
      }
      <!-- .wave1 {
        animation: gelombang 10s infinite;
      } -->

       @keyframes gelombang2 {
        0% {
          transform: translate(0, 0)
        }

        50% {
          transform: translate(-8%, 0)
        }

        100% {
          transform: translate(0, 0)
        }
      }
      <!-- .wave2 {
        animation: gelombang2 8s infinite;
      } -->
    </style>
  </defs>
</svg>